<svg width="256" height="256" viewBox="0 0 256 256" xmlns="http://www.w3.org/2000/svg">
  <g fill="none" stroke="white" stroke-linecap="round" stroke-linejoin="round">
    <path d="M58 162c22 32 74 40 110 24 33-15 50-43 36-62-15-20-55-22-84-4-27 17-35 45-16 58 17 11 43 6 58-9" stroke-width="18"/>
    <path d="M112 78c8-12 25-18 42-16 19 3 36 18 42 36" stroke-width="12"/>
    <path d="M92 118c-18-6-34-4-40 6-8 12 4 32 28 47" stroke-width="10"/>
  </g>
  <g fill="white">
    <path d="M200 58l6 12 12 6-12 6-6 12-6-12-12-6 12-6 6-12z"/>
    <path d="M56 52l4 8 8 4-8 4-4 8-4-8-8-4 8-4 4-8z"/>
    <path d="M210 164l3 6 6 3-6 3-3 6-3-6-6-3 6-3 3-6z"/>
  </g>
</svg>