<svg width="200" height="64" viewBox="0 0 200 64" xmlns="http://www.w3.org/2000/svg">
  <g fill="none" stroke="white" stroke-linecap="round" stroke-linejoin="round">
    <path d="M30 36c6 10 21 13 32 8 10-5 15-14 10-21-4-7-16-7-24-1-8 6-10 14-5 18 5 4 13 2 17-3" stroke-width="5"/>
    <path d="M44 16c3-4 8-6 14-5 6 1 12 6 14 12" stroke-width="3.5"/>
    <path d="M38 26c-6-2-11-1-13 2-2 4 1 10 9 15" stroke-width="3"/>
  </g>
  <g fill="white">
    <path d="M82 13l2.5 5 5 2.5-5 2.5-2.5 5-2.5-5-5-2.5 5-2.5 2.5-5z"/>
    <path d="M22 12l1.5 3 3 1.5-3 1.5-1.5 3-1.5-3-3-1.5 3-1.5 1.5-3z"/>
  </g>
  <text x="98" y="29" fill="white" font-family="'Space Grotesk', Arial, sans-serif" font-weight="600" font-size="18">NEBULA</text>
  <text x="98" y="49" fill="white" font-family="'Inter', Arial, sans-serif" font-weight="500" font-size="16">SUPPLY</text>
</svg>